<svg viewBox="0 0 500 500" xmlns="http://www.w3.org/2000/svg">
  <!-- Background Circle -->
  <circle cx="250" cy="250" r="200" fill="#e8f5e9"/>
  
  <!-- Atom Orbital Rings -->
  <ellipse cx="250" cy="250" rx="180" ry="70" fill="none" stroke="#4caf50" stroke-width="4" transform="rotate(30 250 250)"/>
  <ellipse cx="250" cy="250" rx="180" ry="70" fill="none" stroke="#66bb6a" stroke-width="4" transform="rotate(90 250 250)"/>
  <ellipse cx="250" cy="250" rx="180" ry="70" fill="none" stroke="#81c784" stroke-width="4" transform="rotate(150 250 250)"/>
  
  <!-- Electron Dots -->
  <circle cx="430" cy="250" r="15" fill="#7b1fa2"/>
  <circle cx="70" cy="250" r="15" fill="#7b1fa2"/>
  <circle cx="250" cy="70" r="15" fill="#7b1fa2"/>
  <circle cx="250" cy="430" r="15" fill="#7b1fa2"/>
  <circle cx="363" cy="363" r="15" fill="#7b1fa2"/>
  <circle cx="137" cy="137" r="15" fill="#7b1fa2"/>
  
  <!-- Nucleus - Female Symbol -->
  <circle cx="250" cy="230" r="45" fill="#00897b" stroke="#004d40" stroke-width="2"/>
  <rect x="247" y="275" width="6" height="45" fill="#004d40"/>
  <rect x="227" y="300" width="46" height="6" fill="#004d40"/>
  
  <!-- Gear Elements -->
  <g transform="translate(250, 250) rotate(22.5)">
    <path d="M-25,-100 L-15,-85 L15,-85 L25,-100 L25,-120 L-25,-120 Z" fill="#66bb6a"/>
    <path d="M-25,100 L-15,85 L15,85 L25,100 L25,120 L-25,120 Z" fill="#66bb6a"/>
    <path d="M-100,-25 L-85,-15 L-85,15 L-100,25 L-120,25 L-120,-25 Z" fill="#66bb6a"/>
    <path d="M100,-25 L85,-15 L85,15 L100,25 L120,25 L120,-25 Z" fill="#66bb6a"/>
  </g>
  
  <g transform="translate(250, 250) rotate(67.5)">
    <path d="M-25,-100 L-15,-85 L15,-85 L25,-100 L25,-120 L-25,-120 Z" fill="#66bb6a"/>
    <path d="M-25,100 L-15,85 L15,85 L25,100 L25,120 L-25,120 Z" fill="#66bb6a"/>
    <path d="M-100,-25 L-85,-15 L-85,15 L-100,25 L-120,25 L-120,-25 Z" fill="#66bb6a"/>
    <path d="M100,-25 L85,-15 L85,15 L100,25 L120,25 L120,-25 Z" fill="#66bb6a"/>
  </g>
  
  <!-- Small cute elements -->
  <circle cx="180" cy="180" r="8" fill="#ff80ab"/>
  <circle cx="320" cy="180" r="8" fill="#ff80ab"/>
  <path d="M225,195 Q250,220 275,195" fill="none" stroke="#ff80ab" stroke-width="4" stroke-linecap="round"/>
</svg>